<svg xmlns="http://www.w3.org/2000/svg"  viewBox="0 0 24 24" width="24px" height="24px"><path d="M 8 1 C 6.699219 1 5.601563 1.839844 5.1875 3 L 4.0625 3 L 0.34375 15 C 0.121094 15.625 0 16.300781 0 17 C 0 20.300781 2.699219 23 6 23 C 8.261719 23 10.257813 21.734375 11.28125 19.875 C 11.503906 19.960938 11.746094 20 12 20 C 12.253906 20 12.496094 19.960938 12.71875 19.875 C 13.742188 21.734375 15.738281 23 18 23 C 21.300781 23 24 20.300781 24 17 C 24 15.90625 23.707031 14.886719 23.1875 14 L 19.9375 3 L 18.8125 3 C 18.398438 1.839844 17.300781 1 16 1 C 14.699219 1 13.601563 1.839844 13.1875 3 L 10.8125 3 C 10.398438 1.839844 9.300781 1 8 1 Z M 6 13 C 8.222656 13 10 14.777344 10 17 C 10 19.222656 8.222656 21 6 21 C 3.777344 21 2 19.222656 2 17 C 2 14.777344 3.777344 13 6 13 Z M 18 13 C 20.222656 13 22 14.777344 22 17 C 22 19.222656 20.222656 21 18 21 C 15.777344 21 14 19.222656 14 17 C 14 14.777344 15.777344 13 18 13 Z"/></svg>